{"title":"The Hunger Games-Mockingjay Part 2 2015 HD-TS XVID HQ Hive-CM8","uid":12831753,"size":1862550440,"categoryP":"video","categoryS":"movies","magnet":"?xt=urn:btih:b8e72f07b3fe999a354b4020bd22c84fc9ea4910&amp;dn=The+Hunger+Games-Mockingjay+Part+2+2015+HD-TS+XVID+HQ+Hive-CM8&amp;tr=udp%3A%2F%2Ftracker.leechers-paradise.org%3A6969&amp;tr=udp%3A%2F%2Fzer0day.ch%3A1337&amp;tr=udp%3A%2F%2Fopen.demonii.com%3A1337&amp;tr=udp%3A%2F%2Ftracker.coppersurfer.tk%3A6969&amp;tr=udp%3A%2F%2Fexodus.desync.com%3A6969","seeders":34,"leechers":9,"uploader":"xxxlavalxxx","files":4,"time":1448402927,"description":"http://extraimago.com/image/YEO\r\n \nhttp://www.imdb.com/title/tt1951266/\r\n\r\n\r\nAs the war of Panem escalates to the destruction of other districts by the Capitol, Katniss Everdeen, the reluctant leader of the rebellion, must bring together an army against President Snow, while all she holds dear hangs in the balance.\r\n\r\nDirector: Francis Lawrence\r\nWriters: Peter Craig (screenplay), Danny Strong (screenplay)\r\nStars: Jennifer Lawrence, Josh Hutcherson, Liam Hemsworth\r\nGenres: Adventure | Sci-Fi\r\nCountry: USA\r\nLanguage: English\r\n\r\n\r\nThe.Hunger.Games-Mockingjay.Part.2.2015.HD-TS.XVID.AC3.HQ.Hive-CM8\r\n\r\nThx Hive\r\n\r\nCM8 Doing It Right The First Time \r\n\r\nSources:\r\n\r\nVideo: Italian 1080p Incoming \r\n\r\nAudio: Sweet Line Big Thx to S4NDM4N \r\nbig thx guys\r\n\r\nNotes:\r\n\r\nVery nice quality video as usual,no movements, no flicker, was cammed a bit too much to the right side, but will do just fine\r\n\r\nEncode:\r\n\r\nMovie had cpl darker scenes and daylight were already perfect so i had to cut movie in 20 pieces and adjust brightness and contrast\r\nas well as colours as needed. Movie itself is complete just no rolling endcredits.\r\n\r\nAudio as usual a nice line from S4NDM4N, just first 3mins have some slight distortions here and theire,the rest is just fine.\r\n\r\n\r\ngot very nice\r\nwill do me till retail\r\nenjoy\r\n\r\nSORRY WAYNE PLEASE COME BACK LOL\r\n\r\nVideo: 720x400 @bitrate 1700 2pass\r\nAudio: English Stereo Line 2.0\r\nSample: yes included\r\n\r\n \nhttp://www.imdb.com/title/tt1951266/\r\n\r\n\r\n\r\nGeneral\r\nComplete name                  : The.Hunger.Games-Mockingjay.Part.2.2015.HD-TS.XVID.AC3.HQ.Hive-CM8.avi\r\nFormat                         : AVI\r\nFormat/Info                    : Audio Video Interleave\r\nFile size                      : 1.72 GiB\r\nDuration                       : 2h 5mn\r\nOverall bit rate               : 1 967 Kbps\r\nWriting application            : Nandub v1.0rc2\r\nWriting library                : Nandub build 1853/release\r\n\r\nVideo\r\nID                             : 0\r\nFormat                         : MPEG-4 Visual\r\nFormat profile                 : Advanced   \r\nFormat settings, BVOP          : 2\r\nFormat settings, QPel          : Yes\r\nFormat settings, GMC           : No warppoints\r\nFormat settings, Matrix        : Default (H.263)\r\nMuxing mode                    : Packed bitstream\r\nCodec ID                       : XVID\r\nCodec ID/Hint                  : XviD\r\nDuration                       : 2h 5mn\r\nBit rate                       : 1 699 Kbps\r\nWidth                          : 720 pixels\r\nHeight                         : 400 pixels\r\nDisplay aspect ratio           : 16:9\r\nFrame rate                     : 29.970 fps\r\nColor space                    : YUV\r\nChroma subsampling             : 4:2:0\r\nBit depth                      : 8 bits\r\nScan type                      : Progressive\r\nCompression mode               : Lossy\r\nBits/(Pixel*Frame)             : 0.197\r\nStream size                    : 1.49 GiB (86%)\r\nWriting library                : XviD 1.2.1 (UTC 2008-12-04)\r\n\r\nAudio\r\nID                             : 1\r\nFormat                         : AC-3\r\nFormat/Info                    : Audio Coding 3\r\nCodec ID                       : 2000\r\nDuration                       : 2h 5mn\r\nBit rate mode                  : Constant\r\nBit rate                       : 256 Kbps\r\nChannel(s)                     : 2 channels\r\nSampling rate                  : 48.0 KHz\r\nCompression mode               : Lossy\r\nStream size                    : 229 MiB (13%)\r\nAlignment                      : Split accross interleaves\r\nInterleave, duration           : 33 ms (1.00 video frame)\r\nInterleave, preload duration   : 500 ms\r\n\r\n\r\nGreetz\r\n\r\nSugarB,iNCOMiNG,Izzy,MenaceIISociety,jiinx,SiMPLE,CherryBomb,bigguy79\r\nranbailey,ViSiON,UnKnOwN,YanKeeS,COPYxRIGHT,THC,VAiN,ACAB,DRs\r\nLKRG,Kingstoner,SiMPLE,TiTAN,cadance,PLAYNOW\r\nUnevano,BigVik,Rapeseed,SAFC,goldadvance,KaN1vE,Pinnz,Wayne,HiGH\r\nSeeN,jtr,Limey,ICONiK,TED,rkofan,mrtoke09\r\nMr Hive\r\n\r\n \nhttp://extraimago.com/image/YES \nhttp://extraimago.com/image/YEq \nhttp://extraimago.com/image/YEy \nhttp://extraimago.com/image/YEL \nhttp://extraimago.com/image/YEQ \nhttp://extraimago.com/image/YER","torrent":{"xt":"urn:btih:b8e72f07b3fe999a354b4020bd22c84fc9ea4910","amp;dn":"The+Hunger+Games-Mockingjay+Part+2+2015+HD-TS+XVID+HQ+Hive-CM8","amp;tr":["udp%3A%2F%2Ftracker.leechers-paradise.org%3A6969","udp%3A%2F%2Fzer0day.ch%3A1337","udp%3A%2F%2Fopen.demonii.com%3A1337","udp%3A%2F%2Ftracker.coppersurfer.tk%3A6969","udp%3A%2F%2Fexodus.desync.com%3A6969"],"infoHash":"b8e72f07b3fe999a354b4020bd22c84fc9ea4910","infoHashBuffer":{"type":"Buffer","data":[184,231,47,7,179,254,153,154,53,75,64,32,189,34,200,79,201,234,73,16]},"announce":[],"urlList":[]}}